<?xml version="1.0" encoding="iso-8859-1"?>
<!-- Generator: Adobe Illustrator 19.0.0, SVG Export Plug-In . SVG Version: 6.00 Build 0)  -->
<svg version="1.1" id="Layer_1" xmlns="http://www.w3.org/2000/svg" xmlns:xlink="http://www.w3.org/1999/xlink" x="0px" y="0px"
	 viewBox="0 0 512 512" style="enable-background:new 0 0 512 512;" xml:space="preserve">
<g>
	<g>
		<path d="M486.499,402.211c-1.686-9.284-3.597-19.807-15.603-31.813c-12.005-12.006-22.527-13.917-31.811-15.602
			c-8.4-1.526-15.035-2.73-23.611-11.307c-8.576-8.577-9.782-15.212-11.307-23.61c-1.686-9.283-3.597-19.805-15.603-31.81
			c-12.004-12.005-22.525-13.915-31.809-15.601c-8.399-1.525-15.033-2.729-23.608-11.305c-8.577-8.578-9.782-15.212-11.307-23.611
			c-1.685-9.283-3.596-19.805-15.601-31.809c-12.006-12.005-22.527-13.915-31.811-15.602c-8.399-1.525-15.033-2.729-23.609-11.306
			c-8.576-8.577-9.781-15.211-11.306-23.61c-1.685-9.283-3.597-19.805-15.602-31.809s-22.527-13.915-31.81-15.602
			c-8.399-1.525-15.033-2.729-23.609-11.307c-8.577-8.576-9.782-15.211-11.307-23.61c-1.685-9.283-3.596-19.805-15.601-31.81
			c-12.005-12.004-22.526-13.913-31.809-15.599c-8.399-1.525-15.033-2.729-23.608-11.303L75.197,25.16
			c12.005,12.004,22.526,13.913,31.81,15.599c8.399,1.524,15.032,2.728,23.607,11.302c8.577,8.577,9.781,15.212,11.306,23.61
			c1.685,9.283,3.596,19.806,15.602,31.81c12.005,12.006,22.526,13.915,31.809,15.602c8.4,1.525,15.034,2.73,23.61,11.306
			c8.577,8.577,9.782,15.211,11.307,23.61c1.685,9.283,3.596,19.805,15.601,31.809c12.006,12.005,22.527,13.915,31.81,15.602
			c8.399,1.525,15.034,2.729,23.61,11.306c8.577,8.576,9.781,15.211,11.306,23.609c1.685,9.284,3.597,19.806,15.602,31.812
			c12.005,12.005,22.526,13.915,31.809,15.6c8.399,1.525,15.033,2.729,23.608,11.305c8.578,8.578,9.783,15.213,11.308,23.611
			c1.685,9.283,3.597,19.805,15.602,31.81c12.005,12.005,22.527,13.917,31.811,15.602c8.4,1.526,15.034,2.731,23.611,11.308
			c8.578,8.578,9.783,15.213,11.308,23.613c1.685,9.283,3.597,19.805,15.602,31.811l10.971-10.972
			C489.229,417.246,488.023,410.611,486.499,402.211z"/>
	</g>
</g>
<g>
	<g>
		<path d="M28.092,0L0.001,28.091v483.908L483.908,512l28.091-28.092L28.092,0z M480.696,493.269L285.054,297.628l-10.971,10.971
			l187.883,187.883l-446.449-0.001l0.001-446.447l243.935,243.935l10.971-10.971L18.732,31.305l9.36-9.36l461.965,461.965
			L480.696,493.269z"/>
	</g>
</g>
<g>
	<g>
		
			<rect x="198.283" y="98.698" transform="matrix(0.7071 -0.7071 0.7071 0.7071 -155.9977 235.3069)" width="15.517" height="414.523"/>
	</g>
</g>
<g>
	<g>
		
			<rect x="161.708" y="186.998" transform="matrix(0.7071 -0.7071 0.7071 0.7071 -192.5751 220.1575)" width="15.517" height="311.078"/>
	</g>
</g>
<g>
	<g>
		
			<rect x="125.127" y="275.3" transform="matrix(0.7071 -0.7071 0.7071 0.7071 -229.151 205.0033)" width="15.517" height="207.623"/>
	</g>
</g>
<g>
	<g>
		
			<rect x="88.555" y="363.599" transform="matrix(0.7071 -0.7071 0.7071 0.7071 -265.7265 189.8558)" width="15.517" height="104.179"/>
	</g>
</g>
<g>
</g>
<g>
</g>
<g>
</g>
<g>
</g>
<g>
</g>
<g>
</g>
<g>
</g>
<g>
</g>
<g>
</g>
<g>
</g>
<g>
</g>
<g>
</g>
<g>
</g>
<g>
</g>
<g>
</g>
</svg>
