<?xml version="1.0" encoding="iso-8859-1"?>
<!-- Generator: Adobe Illustrator 19.0.0, SVG Export Plug-In . SVG Version: 6.00 Build 0)  -->
<svg version="1.1" id="Layer_1" xmlns="http://www.w3.org/2000/svg" xmlns:xlink="http://www.w3.org/1999/xlink" x="0px" y="0px"
	 viewBox="0 0 512 512" style="enable-background:new 0 0 512 512;" xml:space="preserve">
<g>
	<g>
		<path d="M461.493,50.495c-67.328-67.325-176.879-67.327-244.209,0c-43.42,43.42-76.223,103.898-87.749,161.779l14.92,2.972
			c10.962-55.048,42.209-112.615,83.586-153.993c61.397-61.394,161.3-61.395,222.695,0c61.395,61.397,61.395,161.297,0,222.693
			c-40.593,40.593-95.004,70.701-149.28,82.6c-26.974,5.914-51.941,6.893-74.206,2.912c-11.344-2.029-21.696-5.325-31.005-9.838
			l-1.847-0.942c-7.873-4.014-15-8.943-21.231-14.68c-0.898-0.828-1.78-1.671-2.643-2.534c-0.01-0.01-0.02-0.021-0.029-0.03
			c-0.759-0.761-1.501-1.539-2.234-2.329c-0.142-0.152-0.283-0.304-0.425-0.458c-5.664-6.187-10.544-13.252-14.526-21.06
			l-1.433-2.81c-8.804-18.513-14.405-44.308-10.49-79.779l-15.122-1.668c-3.601,32.626,0.319,62.06,11.132,86.093l-58.295,58.294
			c-8.751-8.682-20.352-13.461-32.688-13.461c-12.401,0-24.059,4.83-32.828,13.598c-18.1,18.101-18.1,47.553,0,65.654
			c8.77,8.768,20.428,13.596,32.827,13.596c3.214,0,6.377-0.325,9.453-0.957c-3.045,14.795,1.16,30.801,12.616,42.257
			C77.25,507.171,88.91,512,101.309,512c12.402,0,24.06-4.829,32.829-13.597c18.056-18.056,18.099-47.407,0.135-65.518l58.21-58.211
			c9.784,4.422,20.497,7.686,32.09,9.76c9.828,1.758,20.099,2.636,30.772,2.636c15.654,0,32.166-1.889,49.372-5.662
			c57.04-12.507,114.184-44.108,156.78-86.704C528.821,227.375,528.821,117.824,461.493,50.495z M169.427,376.213l-22.536-22.536
			l-10.758,10.758l22.537,22.538l-47.564,47.564l7.645,5.16c1.666,1.125,3.222,2.406,4.626,3.81
			c12.17,12.17,12.17,31.971,0.002,44.14c-5.896,5.896-13.734,9.142-22.072,9.142s-16.174-3.246-22.07-9.142
			c-12.168-12.169-12.168-31.97-0.001-44.141L68.479,432.75c-5.894,5.896-13.731,9.142-22.068,9.142
			c-8.337,0-16.174-3.246-22.07-9.141c-12.168-12.169-12.168-31.971,0-44.14c5.896-5.896,13.734-9.142,22.071-9.142
			c8.337,0,16.173,3.247,22.071,9.145c1.402,1.4,2.683,2.955,3.808,4.623l5.161,7.644l67.402-67.401
			c2.33,3.7,4.86,7.224,7.568,10.568c0.119,0.147,0.24,0.294,0.36,0.441c0.574,0.702,1.157,1.394,1.747,2.08
			c0.207,0.239,0.414,0.48,0.622,0.717c0.546,0.621,1.098,1.233,1.657,1.84c0.213,0.231,0.423,0.466,0.639,0.696
			c0.762,0.813,1.533,1.617,2.319,2.403c0.896,0.895,1.813,1.769,2.743,2.632c0.326,0.303,0.654,0.603,0.985,0.904
			c0.598,0.543,1.206,1.077,1.818,1.606c0.923,0.801,1.862,1.583,2.812,2.353c0.207,0.166,0.411,0.338,0.62,0.504
			c3.107,2.477,6.359,4.783,9.749,6.923L169.427,376.213z"/>
	</g>
</g>
<g>
	<g>
		<path d="M432.294,79.69l-10.756,10.757c21.907,21.907,33.972,51.082,33.973,82.152c0.001,31.07-12.064,60.245-33.969,82.152
			l10.758,10.758c24.78-24.78,38.426-57.776,38.425-92.91C470.723,137.465,457.076,104.469,432.294,79.69z"/>
	</g>
</g>
<g>
</g>
<g>
</g>
<g>
</g>
<g>
</g>
<g>
</g>
<g>
</g>
<g>
</g>
<g>
</g>
<g>
</g>
<g>
</g>
<g>
</g>
<g>
</g>
<g>
</g>
<g>
</g>
<g>
</g>
</svg>
